<svg width="77" height="77" viewBox="0 0 77 77" fill="none" xmlns="http://www.w3.org/2000/svg">
<path d="M77 38.5C77 17.2344 59.7611 0 38.5 0C17.2389 0 0 17.2389 0 38.5C0 59.7611 17.2344 77 38.5 77C59.7611 76.9955 77 59.7611 77 38.5Z" fill="#827977"/>
<path d="M77 38.5C77 17.2344 59.7611 0 38.5 0V77C59.7611 76.9955 77 59.7611 77 38.5Z" fill="#7B7270"/>
<path d="M45.5025 55.5762C45.5025 55.5762 56.2236 57.1434 57.8044 58.7921C59.1813 60.2279 62.0484 73.9837 62.7142 77.0003C43.8945 77.0003 38.5 77.0003 38.5 77.0003V57.4695L45.5025 55.5762Z" fill="#2A2D34"/>
<path d="M44.1345 48.4646H32.8608V60.8254H44.1345V48.4646Z" fill="#D9A78C"/>
<path d="M38.5 12.8319C43.9761 12.8319 52.6318 15.9436 52.6318 30.5283C52.6318 38.9485 49.8869 44.4653 48.6912 45.9917C47.5905 47.3958 41.4034 50.3898 38.5 50.3898C38.5 35.6466 38.5 12.8319 38.5 12.8319Z" fill="#EAC0A7"/>
<path d="M55.3537 34.0023C55.5938 31.6741 54.4841 29.6042 52.8761 29.3823C51.2637 29.1603 49.7644 30.8724 49.5243 33.2006C49.2843 35.5287 50.394 37.5986 52.0019 37.8206C53.6099 38.0425 55.1137 36.3349 55.3537 34.0023Z" fill="#EAC0A7"/>
<path d="M38.4999 12.8318C33.0239 12.8318 24.3682 15.9435 24.3682 30.5282C24.3682 38.9484 27.113 44.4652 28.3087 45.9916C29.4094 47.3957 35.5966 50.3897 38.4999 50.3897C38.4999 35.6464 38.4999 12.8318 38.4999 12.8318Z" fill="#F2D7BC"/>
<path d="M21.6459 34.0023C21.4059 31.6741 22.5156 29.6042 24.1235 29.3823C25.736 29.1603 27.2352 30.8724 27.4753 33.2006C27.7153 35.5287 26.6056 37.5986 24.9932 37.8206C23.3898 38.0425 21.886 36.3349 21.6459 34.0023Z" fill="#F2D7BC"/>
<path d="M31.1259 15.8801C31.1259 15.8801 26.3429 21.5554 28.1773 26.8412C28.4807 33.1462 27.8738 35.2841 25.8356 37.0143C26.3428 30.9086 25.7359 28.8749 23.4938 29.5861C22.5834 24.8075 24.5583 11.9304 31.1259 15.8801Z" fill="#690102"/>
<path d="M45.833 15.8801C45.833 15.8801 50.6161 21.5554 48.7817 26.8412C48.4782 33.1462 49.0851 35.2841 51.1234 37.0143C50.6161 30.9086 51.223 28.8749 53.4651 29.5861C54.38 24.8075 52.4052 11.9304 45.833 15.8801Z" fill="#690102"/>
<path d="M31.4929 55.5762C31.4929 55.5762 20.7718 57.1434 19.191 58.7921C17.8141 60.2279 14.9469 73.9837 14.2856 77.0003C33.1054 77.0003 38.4999 77.0003 38.4999 77.0003V57.4695L31.4929 55.5762Z" fill="#2F343A"/>
<path d="M45.6339 55.286L38.5 56.749L31.3662 55.286L38.5 77" fill="#B9C7D0"/>
<path d="M37.9064 59.675L36.7378 74.3594L38.4997 77L40.2571 74.3594L39.0931 59.675H37.9064Z" fill="#129E95"/>
<path d="M33.3546 64.6574L27.6792 56.2418C29.2328 55.6801 30.8996 55.2543 32.6525 54.969L38.4954 76.9955L30.2972 65.2598L33.3546 64.6574Z" fill="#3A404C"/>
<path d="M43.6454 64.6574L49.3208 56.2418C47.7672 55.6801 46.1004 55.2543 44.3475 54.969L38.5 76.9955L46.6982 65.2598L43.6454 64.6574Z" fill="#3A404C"/>
<path d="M40.4247 58.7374L38.4997 60.7213L36.5747 58.7374L38.4997 56.7535L40.4247 58.7374Z" fill="#129E95"/>
<path d="M38.5 56.7488L44.2252 53.8545L47.1738 55.5757L41.0455 60.472L38.5 56.7488Z" fill="white"/>
<path d="M38.5 56.7488L32.7748 53.8545L29.8262 55.5757L35.8503 60.472L38.5 56.7488Z" fill="white"/>
<path d="M52.0064 18.367C49.7553 9.1134 36.0357 1.84369 26.3926 16.3695C25.7721 19.2366 28.4671 20.5773 28.4671 20.5773C28.4671 20.5773 30.2652 16.3695 38.5178 18.3126C42.626 17.4158 46.63 16.7455 48.478 20.5456C50.3305 24.3458 52.0064 18.367 52.0064 18.367Z" fill="#690102"/>
<path d="M46.5986 44.1346C43.7678 44.1346 41.7431 41.8336 38.5 41.8336C35.2525 41.8336 33.2324 44.1346 30.4015 44.1346C27.2988 44.1346 25.3466 38.7853 24.7578 36.9102C25.5595 42.3047 27.3894 45.8376 28.3089 47.0108C29.4095 48.4149 35.5967 51.4043 38.5 51.4088C41.4034 51.4088 47.5906 48.4149 48.6912 47.0108C49.6107 45.8376 51.4451 42.3002 52.2423 36.9056C51.658 38.7763 49.7058 44.1346 46.5986 44.1346Z" fill="#690102"/>
<path d="M38.4996 46.7074C39.4553 46.7074 40.2299 46.3043 40.2299 45.806H36.7739C36.7739 46.3043 37.5439 46.7074 38.4996 46.7074Z" fill="white"/>
</svg>
