<svg width="168" height="168" viewBox="0 0 168 168" fill="none" xmlns="http://www.w3.org/2000/svg">
<path d="M8 0H0V8H8V0Z" fill="black"/>
<path d="M8 8H0V16H8V8Z" fill="black"/>
<path d="M8 16H0V24H8V16Z" fill="black"/>
<path d="M8 24H0V32H8V24Z" fill="black"/>
<path d="M8 32H0V40H8V32Z" fill="black"/>
<path d="M8 40H0V48H8V40Z" fill="black"/>
<path d="M8 48H0V56H8V48Z" fill="black"/>
<path d="M8 64H0V72H8V64Z" fill="black"/>
<path d="M8 72H0V80H8V72Z" fill="black"/>
<path d="M8 80H0V88H8V80Z" fill="black"/>
<path d="M8 112H0V120H8V112Z" fill="black"/>
<path d="M8 120H0V128H8V120Z" fill="black"/>
<path d="M8 128H0V136H8V128Z" fill="black"/>
<path d="M8 136H0V144H8V136Z" fill="black"/>
<path d="M8 144H0V152H8V144Z" fill="black"/>
<path d="M8 152H0V160H8V152Z" fill="black"/>
<path d="M8 160H0V168H8V160Z" fill="black"/>
<path d="M16 0H8V8H16V0Z" fill="black"/>
<path d="M16 48H8V56H16V48Z" fill="black"/>
<path d="M16 64H8V72H16V64Z" fill="black"/>
<path d="M16 72H8V80H16V72Z" fill="black"/>
<path d="M16 80H8V88H16V80Z" fill="black"/>
<path d="M16 112H8V120H16V112Z" fill="black"/>
<path d="M16 160H8V168H16V160Z" fill="black"/>
<path d="M24 0H16V8H24V0Z" fill="black"/>
<path d="M24 16H16V24H24V16Z" fill="black"/>
<path d="M24 24H16V32H24V24Z" fill="black"/>
<path d="M24 32H16V40H24V32Z" fill="black"/>
<path d="M24 48H16V56H24V48Z" fill="black"/>
<path d="M24 80H16V88H24V80Z" fill="black"/>
<path d="M24 88H16V96H24V88Z" fill="black"/>
<path d="M24 96H16V104H24V96Z" fill="black"/>
<path d="M24 112H16V120H24V112Z" fill="black"/>
<path d="M24 128H16V136H24V128Z" fill="black"/>
<path d="M24 136H16V144H24V136Z" fill="black"/>
<path d="M24 144H16V152H24V144Z" fill="black"/>
<path d="M24 160H16V168H24V160Z" fill="black"/>
<path d="M32 0H24V8H32V0Z" fill="black"/>
<path d="M32 16H24V24H32V16Z" fill="black"/>
<path d="M32 24H24V32H32V24Z" fill="black"/>
<path d="M32 32H24V40H32V32Z" fill="black"/>
<path d="M32 48H24V56H32V48Z" fill="black"/>
<path d="M32 80H24V88H32V80Z" fill="black"/>
<path d="M32 88H24V96H32V88Z" fill="black"/>
<path d="M32 112H24V120H32V112Z" fill="black"/>
<path d="M32 128H24V136H32V128Z" fill="black"/>
<path d="M32 136H24V144H32V136Z" fill="black"/>
<path d="M32 144H24V152H32V144Z" fill="black"/>
<path d="M32 160H24V168H32V160Z" fill="black"/>
<path d="M40 0H32V8H40V0Z" fill="black"/>
<path d="M40 16H32V24H40V16Z" fill="black"/>
<path d="M40 24H32V32H40V24Z" fill="black"/>
<path d="M40 32H32V40H40V32Z" fill="black"/>
<path d="M40 48H32V56H40V48Z" fill="black"/>
<path d="M40 72H32V80H40V72Z" fill="black"/>
<path d="M40 96H32V104H40V96Z" fill="black"/>
<path d="M40 112H32V120H40V112Z" fill="black"/>
<path d="M40 128H32V136H40V128Z" fill="black"/>
<path d="M40 136H32V144H40V136Z" fill="black"/>
<path d="M40 144H32V152H40V144Z" fill="black"/>
<path d="M40 160H32V168H40V160Z" fill="black"/>
<path d="M48 0H40V8H48V0Z" fill="black"/>
<path d="M48 48H40V56H48V48Z" fill="black"/>
<path d="M48 64H40V72H48V64Z" fill="black"/>
<path d="M48 80H40V88H48V80Z" fill="black"/>
<path d="M48 88H40V96H48V88Z" fill="black"/>
<path d="M48 96H40V104H48V96Z" fill="black"/>
<path d="M48 112H40V120H48V112Z" fill="black"/>
<path d="M48 160H40V168H48V160Z" fill="black"/>
<path d="M56 0H48V8H56V0Z" fill="black"/>
<path d="M56 8H48V16H56V8Z" fill="black"/>
<path d="M56 16H48V24H56V16Z" fill="black"/>
<path d="M56 24H48V32H56V24Z" fill="black"/>
<path d="M56 32H48V40H56V32Z" fill="black"/>
<path d="M56 40H48V48H56V40Z" fill="black"/>
<path d="M56 48H48V56H56V48Z" fill="black"/>
<path d="M56 64H48V72H56V64Z" fill="black"/>
<path d="M56 80H48V88H56V80Z" fill="black"/>
<path d="M56 96H48V104H56V96Z" fill="black"/>
<path d="M56 112H48V120H56V112Z" fill="black"/>
<path d="M56 120H48V128H56V120Z" fill="black"/>
<path d="M56 128H48V136H56V128Z" fill="black"/>
<path d="M56 136H48V144H56V136Z" fill="black"/>
<path d="M56 144H48V152H56V144Z" fill="black"/>
<path d="M56 152H48V160H56V152Z" fill="black"/>
<path d="M56 160H48V168H56V160Z" fill="black"/>
<path d="M64 64H56V72H64V64Z" fill="black"/>
<path d="M64 80H56V88H64V80Z" fill="black"/>
<path d="M64 96H56V104H64V96Z" fill="black"/>
<path d="M72 24H64V32H72V24Z" fill="black"/>
<path d="M72 32H64V40H72V32Z" fill="black"/>
<path d="M72 48H64V56H72V48Z" fill="black"/>
<path d="M72 72H64V80H72V72Z" fill="black"/>
<path d="M72 80H64V88H72V80Z" fill="black"/>
<path d="M72 96H64V104H72V96Z" fill="black"/>
<path d="M72 104H64V112H72V104Z" fill="black"/>
<path d="M72 112H64V120H72V112Z" fill="black"/>
<path d="M72 120H64V128H72V120Z" fill="black"/>
<path d="M72 152H64V160H72V152Z" fill="black"/>
<path d="M72 160H64V168H72V160Z" fill="black"/>
<path d="M80 32H72V40H80V32Z" fill="black"/>
<path d="M80 40H72V48H80V40Z" fill="black"/>
<path d="M80 96H72V104H80V96Z" fill="black"/>
<path d="M80 104H72V112H80V104Z" fill="black"/>
<path d="M80 120H72V128H80V120Z" fill="black"/>
<path d="M80 128H72V136H80V128Z" fill="black"/>
<path d="M80 152H72V160H80V152Z" fill="black"/>
<path d="M88 8H80V16H88V8Z" fill="black"/>
<path d="M88 16H80V24H88V16Z" fill="black"/>
<path d="M88 24H80V32H88V24Z" fill="black"/>
<path d="M88 48H80V56H88V48Z" fill="black"/>
<path d="M88 72H80V80H88V72Z" fill="black"/>
<path d="M88 96H80V104H88V96Z" fill="black"/>
<path d="M88 120H80V128H88V120Z" fill="black"/>
<path d="M88 144H80V152H88V144Z" fill="black"/>
<path d="M96 16H88V24H96V16Z" fill="black"/>
<path d="M96 40H88V48H96V40Z" fill="black"/>
<path d="M96 64H88V72H96V64Z" fill="black"/>
<path d="M96 88H88V96H96V88Z" fill="black"/>
<path d="M96 112H88V120H96V112Z" fill="black"/>
<path d="M96 120H88V128H96V120Z" fill="black"/>
<path d="M96 128H88V136H96V128Z" fill="black"/>
<path d="M96 152H88V160H96V152Z" fill="black"/>
<path d="M104 0H96V8H104V0Z" fill="black"/>
<path d="M104 8H96V16H104V8Z" fill="black"/>
<path d="M104 16H96V24H104V16Z" fill="black"/>
<path d="M104 24H96V32H104V24Z" fill="black"/>
<path d="M104 32H96V40H104V32Z" fill="black"/>
<path d="M104 48H96V56H104V48Z" fill="black"/>
<path d="M104 72H96V80H104V72Z" fill="black"/>
<path d="M104 80H96V88H104V80Z" fill="black"/>
<path d="M104 88H96V96H104V88Z" fill="black"/>
<path d="M104 112H96V120H104V112Z" fill="black"/>
<path d="M104 144H96V152H104V144Z" fill="black"/>
<path d="M104 160H96V168H104V160Z" fill="black"/>
<path d="M112 88H104V96H112V88Z" fill="black"/>
<path d="M112 96H104V104H112V96Z" fill="black"/>
<path d="M112 104H104V112H112V104Z" fill="black"/>
<path d="M112 112H104V120H112V112Z" fill="black"/>
<path d="M112 136H104V144H112V136Z" fill="black"/>
<path d="M112 144H104V152H112V144Z" fill="black"/>
<path d="M112 152H104V160H112V152Z" fill="black"/>
<path d="M120 0H112V8H120V0Z" fill="black"/>
<path d="M120 8H112V16H120V8Z" fill="black"/>
<path d="M120 16H112V24H120V16Z" fill="black"/>
<path d="M120 24H112V32H120V24Z" fill="black"/>
<path d="M120 32H112V40H120V32Z" fill="black"/>
<path d="M120 40H112V48H120V40Z" fill="black"/>
<path d="M120 48H112V56H120V48Z" fill="black"/>
<path d="M120 72H112V80H120V72Z" fill="black"/>
<path d="M120 80H112V88H120V80Z" fill="black"/>
<path d="M120 104H112V112H120V104Z" fill="black"/>
<path d="M120 112H112V120H120V112Z" fill="black"/>
<path d="M120 120H112V128H120V120Z" fill="black"/>
<path d="M120 128H112V136H120V128Z" fill="black"/>
<path d="M120 136H112V144H120V136Z" fill="black"/>
<path d="M120 160H112V168H120V160Z" fill="black"/>
<path d="M128 0H120V8H128V0Z" fill="black"/>
<path d="M128 48H120V56H128V48Z" fill="black"/>
<path d="M128 88H120V96H128V88Z" fill="black"/>
<path d="M128 152H120V160H128V152Z" fill="black"/>
<path d="M136 0H128V8H136V0Z" fill="black"/>
<path d="M136 16H128V24H136V16Z" fill="black"/>
<path d="M136 24H128V32H136V24Z" fill="black"/>
<path d="M136 32H128V40H136V32Z" fill="black"/>
<path d="M136 48H128V56H136V48Z" fill="black"/>
<path d="M136 64H128V72H136V64Z" fill="black"/>
<path d="M136 88H128V96H136V88Z" fill="black"/>
<path d="M136 104H128V112H136V104Z" fill="black"/>
<path d="M136 120H128V128H136V120Z" fill="black"/>
<path d="M136 128H128V136H136V128Z" fill="black"/>
<path d="M136 136H128V144H136V136Z" fill="black"/>
<path d="M136 144H128V152H136V144Z" fill="black"/>
<path d="M136 152H128V160H136V152Z" fill="black"/>
<path d="M144 0H136V8H144V0Z" fill="black"/>
<path d="M144 16H136V24H144V16Z" fill="black"/>
<path d="M144 24H136V32H144V24Z" fill="black"/>
<path d="M144 32H136V40H144V32Z" fill="black"/>
<path d="M144 48H136V56H144V48Z" fill="black"/>
<path d="M144 64H136V72H144V64Z" fill="black"/>
<path d="M144 72H136V80H144V72Z" fill="black"/>
<path d="M144 80H136V88H144V80Z" fill="black"/>
<path d="M144 88H136V96H144V88Z" fill="black"/>
<path d="M144 104H136V112H144V104Z" fill="black"/>
<path d="M144 112H136V120H144V112Z" fill="black"/>
<path d="M144 136H136V144H144V136Z" fill="black"/>
<path d="M144 144H136V152H144V144Z" fill="black"/>
<path d="M144 152H136V160H144V152Z" fill="black"/>
<path d="M152 0H144V8H152V0Z" fill="black"/>
<path d="M152 16H144V24H152V16Z" fill="black"/>
<path d="M152 24H144V32H152V24Z" fill="black"/>
<path d="M152 32H144V40H152V32Z" fill="black"/>
<path d="M152 48H144V56H152V48Z" fill="black"/>
<path d="M152 72H144V80H152V72Z" fill="black"/>
<path d="M152 88H144V96H152V88Z" fill="black"/>
<path d="M152 104H144V112H152V104Z" fill="black"/>
<path d="M152 120H144V128H152V120Z" fill="black"/>
<path d="M152 152H144V160H152V152Z" fill="black"/>
<path d="M160 0H152V8H160V0Z" fill="black"/>
<path d="M160 48H152V56H160V48Z" fill="black"/>
<path d="M160 72H152V80H160V72Z" fill="black"/>
<path d="M160 80H152V88H160V80Z" fill="black"/>
<path d="M160 88H152V96H160V88Z" fill="black"/>
<path d="M160 104H152V112H160V104Z" fill="black"/>
<path d="M160 112H152V120H160V112Z" fill="black"/>
<path d="M160 120H152V128H160V120Z" fill="black"/>
<path d="M160 128H152V136H160V128Z" fill="black"/>
<path d="M160 144H152V152H160V144Z" fill="black"/>
<path d="M160 160H152V168H160V160Z" fill="black"/>
<path d="M168 0H160V8H168V0Z" fill="black"/>
<path d="M168 8H160V16H168V8Z" fill="black"/>
<path d="M168 16H160V24H168V16Z" fill="black"/>
<path d="M168 24H160V32H168V24Z" fill="black"/>
<path d="M168 32H160V40H168V32Z" fill="black"/>
<path d="M168 40H160V48H168V40Z" fill="black"/>
<path d="M168 48H160V56H168V48Z" fill="black"/>
<path d="M168 88H160V96H168V88Z" fill="black"/>
<path d="M168 96H160V104H168V96Z" fill="black"/>
<path d="M168 104H160V112H168V104Z" fill="black"/>
<path d="M168 120H160V128H168V120Z" fill="black"/>
<path d="M168 128H160V136H168V128Z" fill="black"/>
<path d="M168 144H160V152H168V144Z" fill="black"/>
</svg>
