<svg width="77" height="78" viewBox="0 0 77 78" fill="none" xmlns="http://www.w3.org/2000/svg">
<path d="M77 38.5C77 17.2389 59.7611 0 38.5 0C17.2389 0 0 17.2344 0 38.5C0 59.7611 17.2344 77 38.5 77C59.7611 77 77 59.7656 77 38.5Z" fill="#B5332B"/>
<path d="M77 38.5C77 17.2389 59.7611 0 38.5 0V77C59.7611 77 77 59.7656 77 38.5Z" fill="#A22D26"/>
<path d="M38.5721 66.8182H24.7982C24.7982 66.8182 18.4434 60.6718 21.6185 51.5587C24.7982 42.4455 27.5521 38.8446 27.765 29.0973C37.2994 29.0973 38.5721 29.0973 38.5721 29.0973V66.8182Z" fill="#870B16"/>
<path d="M38.2144 66.8182H51.9883C51.9883 66.8182 58.3476 60.6718 55.1679 51.5587C51.9883 42.4455 49.2344 38.8446 49.0215 29.0973C39.4871 29.0973 38.2144 29.0973 38.2144 29.0973V66.8182Z" fill="#870B16"/>
<path d="M55.4215 24.971C55.4215 15.6631 47.8755 8.12158 38.5721 8.12158C29.2641 8.12158 21.7227 15.6676 21.7227 24.971C21.7227 34.2789 29.2687 41.8204 38.5721 41.8204C47.8755 41.8249 55.4215 34.2789 55.4215 24.971Z" fill="#870B16"/>
<path d="M44.2068 61.0568L38.4997 77.0728L32.9331 61.0568V48.696H44.2068V61.0568Z" fill="#EAC8AD"/>
<path d="M38.5722 14.4313C33.0961 14.4313 24.4404 17.543 24.4404 32.1277C24.4404 40.5479 27.7242 44.5156 28.92 46.042C30.0207 47.4462 35.6688 51.9846 38.5722 51.9846C38.5722 37.2459 38.5722 14.4313 38.5722 14.4313Z" fill="#F2D7BC"/>
<path d="M21.7182 35.6016C21.4781 33.2735 22.5878 31.2036 24.1958 30.9816C25.8083 30.7597 27.3075 32.4718 27.5521 34.8C27.7921 37.1281 26.6824 39.198 25.0745 39.4199C23.4575 39.6419 21.9583 37.9298 21.7182 35.6016Z" fill="#F2D7BC"/>
<path d="M38.5269 14.4312C44.0029 14.4312 52.6586 17.5429 52.6586 32.1276C52.6586 40.5477 49.3748 44.5155 48.179 46.0419C47.0784 47.446 41.4302 51.9845 38.5269 51.9845C38.5269 37.2458 38.5269 14.4312 38.5269 14.4312Z" fill="#EAC0A7"/>
<path d="M55.426 35.6018C55.666 33.2736 54.5563 31.2037 52.9484 30.9818C51.3359 30.7598 49.8367 32.472 49.5966 34.8001C49.3565 37.1282 50.4663 39.1981 52.0787 39.4201C53.6821 39.642 55.1859 37.9299 55.426 35.6018Z" fill="#EAC0A7"/>
<path d="M38.3868 10.8981C38.124 10.8664 37.8523 10.8438 37.5579 10.8392C37.5579 10.8392 28.3133 11.5322 25.7361 23.5759C24.4996 24.4999 22.2349 28.1053 25.2198 32.1184C25.6319 28.7213 26.8775 26.2619 29.029 25.3243C32.8473 23.662 34.419 25.2065 38.8488 21.8095C41.4351 19.8256 42.3636 15.8352 41.7929 13.6067C40.7602 10.8392 38.1376 10.9434 38.3868 10.8981Z" fill="#870B16"/>
<path d="M41.2036 14.2453C41.2036 14.2453 37.87 26.6785 52.423 31.8874C55.9106 20.5004 49.5422 13.0767 41.2036 14.2453Z" fill="#870B16"/>
<path d="M24.6328 38.0069L23.7266 38.9135L24.6331 39.8197L25.5393 38.9132L24.6328 38.0069Z" fill="#FFF200"/>
<path d="M52.7012 38.0073L51.7949 38.9138L52.7014 39.8201L53.6077 38.9135L52.7012 38.0073Z" fill="#FFF200"/>
<path d="M38.4998 77.0729V61.6729C38.4998 61.6729 34.2919 60.6311 33.3679 57.225C32.9241 55.5854 32.9331 54.2719 32.9331 54.2719C32.9331 54.2719 23.7339 57.379 21.6821 60.5859C19.9745 65.6724 19.5034 77.0729 19.5034 77.0729H38.4998Z" fill="#F8A41D"/>
<path d="M38.5 77.0729V61.6729C38.5 61.6729 42.7078 60.6311 43.6318 57.225C44.0757 55.5854 44.0667 54.2719 44.0667 54.2719C44.0667 54.2719 53.2659 57.379 55.3177 60.5859C57.0253 65.6724 57.4964 77.0729 57.4964 77.0729H38.5Z" fill="#F98E1C"/>
<path d="M38.5721 46.8481C40.7054 46.8481 42.4357 45.5391 42.4357 43.9221H34.7085C34.7085 45.5346 36.4387 46.8481 38.5721 46.8481Z" fill="white"/>
</svg>
